# xmcd CD database file generated by Grip 3.3.1
# 
# Track frame offsets:
#       150
#       91983
#       134111
#       180937
#       246077
#       288042
# 
# Disc length: 4387 seconds
# 
# Revision: 2
# Processed by: cddbd v1.5.2PL0 Copyright (c) Steve Scherf et al.
# Submitted via: Grip 3.3.1
# 
DISCID=4b112106
DTITLE=Chopin - Masterpieces for the Piano Disk 1
DYEAR=2004
DGENRE=Classical
TTITLE0=1 Allegro Maestoso, Piano Concerto No. 1 in E Minor, Op 11
TTITLE1=2 Romanza: Larghetto, Piano Concerto No. 1 in E Minor, Op 11
TTITLE2=3 Rondo: Vivace, Piano Concerto No. 1 in E Minor, Op 11
TTITLE3=1 Maestoso, Piano Concerto No. 2 in F Minor, Op 21
TTITLE4=2 Larghetto, Piano Concerto No. 2 in F Minor, Op 21
TTITLE5=3 Allegro Vivace, Piano Concerto No. 2 in F Minor, Op 21
EXTD=YEAR: 2004
EXTT0=
EXTT1=
EXTT2=
EXTT3=
EXTT4=
EXTT5=
PLAYORDER=
